<?xml version="1.0" encoding="UTF-8" standalone="no"?>
<svg
   xmlns:dc="http://purl.org/dc/elements/1.1/"
   xmlns:cc="http://creativecommons.org/ns#"
   xmlns:rdf="http://www.w3.org/1999/02/22-rdf-syntax-ns#"
   xmlns:svg="http://www.w3.org/2000/svg"
   xmlns="http://www.w3.org/2000/svg"
   id="svg8"
   version="1.1"
   viewBox="0 0 60 130"
   height="130mm"
   width="60mm">
  <defs
     id="defs2">
    <marker
       id="DistanceX"
       orient="auto"
       refX="0"
       refY="0"
       style="overflow:visible">
      <path
         d="M 3,-3 -3,3 M 0,-5 V 5"
         style="stroke:#000000;stroke-width:0.5"
         id="path817" />
    </marker>
    <pattern
       height="8"
       id="Hatch"
       patternUnits="userSpaceOnUse"
       width="8"
       x="0"
       y="0">
      <path
         d="M8 4 l-4,4"
         linecap="square"
         stroke="#000000"
         stroke-width="0.25"
         id="path820" />
      <path
         d="M6 2 l-4,4"
         linecap="square"
         stroke="#000000"
         stroke-width="0.25"
         id="path822" />
      <path
         d="M4 0 l-4,4"
         linecap="square"
         stroke="#000000"
         stroke-width="0.25"
         id="path824" />
    </pattern>
    <symbol
       id="*MODEL_SPACE" />
    <symbol
       id="*PAPER_SPACE" />
  </defs>
  <metadata
     id="metadata5">
    <rdf:RDF>
      <cc:Work
         rdf:about="">
        <dc:format>image/svg+xml</dc:format>
        <dc:type
           rdf:resource="http://purl.org/dc/dcmitype/StillImage" />
        <dc:title></dc:title>
      </cc:Work>
    </rdf:RDF>
  </metadata>
  <g
     transform="translate(0,-167)"
     id="layer1">
    <g
       transform="matrix(-0.26458333,0,0,-0.26458333,59.91133,653.99136)"
       id="g855">
      <path
         d="m 218.87747,1378.928 a 23.055118,23.055118 0 0 0 -23.05512,-23.0551"
         style="fill:none;stroke:#000000"
         id="path831" />
      <path
         d="M 218.87747,1611.7129 V 1378.928"
         style="fill:none;stroke:#000000"
         id="path833" />
      <path
         d="M 218.87747,1789.209 V 1619.5856"
         style="fill:none;stroke:#000000"
         id="path835" />
      <path
         d="m 218.87747,1619.5856 v -8.6692"
         style="fill:none;stroke:#000000"
         id="path837" />
      <path
         d="m 218.87747,1789.209 a 33.165354,33.165354 0 0 0 -14.26772,-3.2259"
         style="fill:none;stroke:#000000"
         id="path839" />
      <path
         d="m 165.11369,1785.9831 h 39.49606"
         style="fill:none;stroke:#000000"
         id="path841" />
      <path
         d="m 165.11369,1785.9831 a 33.165354,33.165354 0 0 0 -29.66267,48"
         style="fill:none;stroke:#000000"
         id="path843" />
      <path
         d="M 30.279045,1833.9831 H 135.45102"
         style="fill:none;stroke:#000000"
         id="path845" />
      <path
         d="m 7.223927,1810.928 a 23.055118,23.055118 0 0 0 23.055118,23.0551"
         style="fill:none;stroke:#000000"
         id="path847" />
      <path
         d="m 7.223927,1378.928 v 432"
         style="fill:none;stroke:#000000"
         id="path849" />
      <path
         d="M 30.279045,1355.8729 A 23.055118,23.055118 0 0 0 7.223927,1378.928"
         style="fill:none;stroke:#000000"
         id="path851" />
      <path
         d="M 195.82235,1355.8729 H 30.279045"
         style="fill:none;stroke:#000000"
         id="path853" />
    </g>
    <flowRoot
       transform="matrix(0.26458333,0,0,0.26458333,0,167)"
       style="font-style:normal;font-weight:normal;font-size:40px;line-height:1.25;font-family:sans-serif;letter-spacing:0px;word-spacing:0px;fill:#000000;fill-opacity:1;stroke:none"
       id="flowRoot890"
       xml:space="preserve"><flowRegion
         id="flowRegion892"><rect
           y="42.410019"
           x="240.35715"
           height="68.928574"
           width="142.5"
           id="rect894" /></flowRegion><flowPara
         id="flowPara896" /></flowRoot>    <flowRoot
       transform="matrix(0.26458333,0,0,0.26458333,0,167)"
       style="font-style:normal;font-weight:normal;font-size:40px;line-height:1.25;font-family:sans-serif;letter-spacing:0px;word-spacing:0px;fill:#000000;fill-opacity:1;stroke:none"
       id="flowRoot898"
       xml:space="preserve"><flowRegion
         id="flowRegion900"><rect
           y="79.910019"
           x="257.14285"
           height="255"
           width="176.07143"
           id="rect902" /></flowRegion><flowPara
         id="flowPara904" /></flowRoot>  </g>
</svg>
